PathFileType	4	(X/Y/Z)	48_2_72_p0_0-496.trc
DataRate	CameraRate	NumFrames	NumMarkers	Units	OrigDataRate	OrigDataStartFrame	OrigNumFrames
54.0	54.0	5	27	m	54.0	186	497
Frame#	Time	RHip			RKnee			RAnkle			RBigToe			RSmallToe			RHeel			LHip			LKnee			LAnkle			LBigToe			LSmallToe			LHeel			Neck			Head			Nose			RShoulder			RElbow			RWrist			RThumb			RIndex			RPinky			LShoulder			LElbow			LWrist			LThumb			LIndex			LPinky			
		X1	Y1	Z1	X2	Y2	Z2	X3	Y3	Z3	X4	Y4	Z4	X5	Y5	Z5	X6	Y6	Z6	X7	Y7	Z7	X8	Y8	Z8	X9	Y9	Z9	X10	Y10	Z10	X11	Y11	Z11	X12	Y12	Z12	X13	Y13	Z13	X14	Y14	Z14	X15	Y15	Z15	X16	Y16	Z16	X17	Y17	Z17	X18	Y18	Z18	X19	Y19	Z19	X20	Y20	Z20	X21	Y21	Z21	X22	Y22	Z22	X23	Y23	Z23	X24	Y24	Z24	X25	Y25	Z25	X26	Y26	Z26	X27	Y27	Z27	
186	3.4444444444444446	0.1780585133797414	0.4851718660109492	0.6809451428207783	0.1412538681987535	0.5487451614053911	1.1512425454403925	0.12062085502728784	0.6248733368234799	1.5217051651152127	0.1002612875722142	0.466903361098691	1.549455705273748	0.17127152413921423	0.49256835021420625	1.5655789272749885	0.10739220889477445	0.7189733213629445	1.591322581001512	-0.05954734171498554	0.47277285175912337	0.6619662845520594	-0.05104425435922703	0.6026750884841435	1.1177917005337534	-0.05220978521756351	0.6928993914833137	1.5211610066067254	-0.0645881715973674	0.46640646037582134	1.5254327852597613	-0.11656173636442319	0.5418667956043233	1.5436230887263434	-0.024192775524243666	0.7644614136698865	1.5860159793413575	0.07477891539134277	0.46253388119308775	0.177935023890389	0.08683772258960612	0.3869091687744164	-0.0774533493422699	0.0738780147704144	0.3343384180232231	0.05888440092788834	0.23140042206442607	0.4278621419958679	0.26065570456762155	0.32367870967124496	0.4195359364604841	0.5000902365800602	0.3068797927792529	0.23943731897237822	0.6712059388639567	0.2580751809520601	0.09571779049688726	0.7444848792891052	0.2611339220915333	0.10725262122854923	0.7544862303535786	0.320661324982147	0.22789674568506688	0.7848538598601306	-0.09475756969622448	0.440082583877412	0.2612981224641951	-0.16639133262031502	0.49640529481168394	0.5130809211546244	-0.1810888481722448	0.47891543986366203	0.7421480891204969	-0.1315869763393256	0.49854419478190476	0.8509520302855339	-0.1721289904892146	0.50068742772538	0.8652673664483469	-0.21133558590774132	0.497072838263001	0.8514191514819679
187	3.462962962962963	0.1787425642253464	0.48504286806289637	0.6809966743903306	0.14124865205729223	0.5487026824333847	1.1511846872348106	0.1205933296546522	0.6247698783208827	1.5217060089521153	0.10103685490613269	0.4676944398572509	1.5536025624720216	0.17099424084630524	0.4914905530659261	1.5651722090080575	0.1073358502492932	0.7188690953130302	1.5917219831103424	-0.05929082845304491	0.4739979312117604	0.6658940700154732	-0.04589188436401495	0.6179031273738017	1.1273703661255567	-0.05349471448708754	0.6935733758861852	1.5261620579035478	-0.06821370401644797	0.45286363925686907	1.5187111907131734	-0.1163913129557039	0.5415434041917105	1.5431374507490383	-0.024417751025905887	0.764253087792269	1.5861439692478971	0.07056628516220284	0.46007828082660845	0.1705521686545401	0.08682986754310067	0.3869656831333761	-0.07743279742379436	0.07388453070523937	0.3441364306478944	0.05860638140351816	0.231357940137435	0.42708109240964454	0.2532320431269496	0.3243950458400291	0.41972804877863823	0.49659901875848556	0.31077572484164123	0.237935723507104	0.6596579358088827	0.26332853266687956	0.0828273072859877	0.7337719005431128	0.27396969353843525	0.08037598306327812	0.7441618398703551	0.3217745943580456	0.21281331653331484	0.7734401543187261	-0.09477472283732995	0.44006804213727685	0.2612169632607005	-0.16642599280740367	0.49625285928060187	0.513059993233589	-0.18509176204470798	0.4772622216302191	0.7416231833364444	-0.1316388843855472	0.49814494900080647	0.8508114893655269	-0.17214260313878013	0.4999692987644828	0.8650716081987871	-0.21580799776381226	0.49649758264724697	0.850988099822951
188	3.4814814814814814	0.17931066755921182	0.4869258454971236	0.6847429992963409	0.14562331081105578	0.5598048672507859	1.1471618984444245	0.11791721129854855	0.6423414486356216	1.529341454408903	0.09989816644400057	0.4656628409100653	1.5491467730024466	0.17073395082893453	0.4906741177640407	1.5648285992067983	0.10730985669546586	0.7190811500154172	1.5915442915836122	-0.05893851765361148	0.47554075556756076	0.6700953227468053	-0.0465383768313048	0.6160910381133453	1.1225443531092754	-0.053565974944396896	0.6935086522385286	1.5263197234318528	-0.06817731243258776	0.4526941366916078	1.5185013456736107	-0.11254657754870293	0.527171254509964	1.536230998694719	-0.024302201998158766	0.7644581188775728	1.5861794226219643	0.07045128418945916	0.46095465087742016	0.1773700661554921	0.08700003736045259	0.3871411333657535	-0.07752074480767895	0.0738743417676792	0.3343074352644169	0.05887891239496841	0.23098889492867464	0.42663691541148807	0.25664726196255805	0.32547086705331085	0.40502185112720324	0.4909948985903591	0.3129697782365906	0.22553013276602282	0.652571778528199	0.2708052135564158	0.06933336154029801	0.7156071128310016	0.2766699517738895	0.06839137838834992	0.7376684776438387	0.3234331404523969	0.20025407562485922	0.7697447303378443	-0.09473117332195992	0.43998078356386616	0.2612451523934872	-0.16633760274833057	0.4967599319605898	0.5130676379955283	-0.18132748229938364	0.48976157602271475	0.7443694609277398	-0.13214400557615003	0.4706211472763389	0.8438111884024317	-0.17594440838325434	0.4843120605299609	0.8611014025769619	-0.21993313881634435	0.4836729078657232	0.8505131399859573
189	3.5	0.18423007784561288	0.4989713255037908	0.6832766538725256	0.1457078100198199	0.5597825584882357	1.1512384271278957	0.11793893001443889	0.6423275968321455	1.5293260967050317	0.09984560020195185	0.46549551372811493	1.5491589487448767	0.1686165441303582	0.507331824732287	1.5726510125920585	0.10737400219575344	0.719034909377059	1.591575675667643	-0.05899065497325634	0.4755556876767994	0.6700538660025093	-0.045882841390583115	0.6180550520835605	1.1276298742307829	-0.05350212968242571	0.6935774239908163	1.526236614913303	-0.06820644908868612	0.4528705981744225	1.5186732925591466	-0.11634262728810454	0.5415958215727513	1.5430521092429017	-0.024073123928477068	0.7645816098007094	1.5859744661020863	0.07063250912386189	0.4600396080458252	0.17036959677588376	0.09578439710061783	0.39949784986347797	-0.07816037633504097	0.07831165453964765	0.345138779588619	0.05880412007084688	0.2309613655047005	0.4265759482139425	0.256560450251335	0.32574841278783573	0.40517625541579244	0.49100989248426385	0.3174874386020934	0.22428320561975484	0.6444531948988317	0.2694524374182184	0.06038095882713507	0.6825258468267715	0.28432650799713927	0.06762976859263117	0.7234741763322059	0.3287158275996382	0.1863667660366242	0.7601035471163976	-0.09481559508255377	0.4398636314751349	0.2612529173681667	-0.1662503613755834	0.49636239307431435	0.5090914385814871	-0.1853058578776933	0.4777007493955662	0.7416376655622208	-0.13560043474982295	0.4847283796225574	0.8470034129893755	-0.17606685190342236	0.4851312288041981	0.8612586932278307	-0.21939324330807297	0.4834937994936044	0.8472460437771995
190	3.5185185185185186	0.1889698242084388	0.5002770863402566	0.6836426443714364	0.1458731563116894	0.5600130122871394	1.1513554409239142	0.11791347840615184	0.6421547053062757	1.5293132236856857	0.09989452223525865	0.4656862539337309	1.549237061489526	0.1687758140766448	0.5076638593303	1.5727257689600185	0.10723091790264402	0.7186217004603469	1.5915746465037812	-0.0585904679056522	0.476423898769091	0.6741166660424327	-0.045899157099465925	0.6181182939293248	1.127669431673377	-0.053565585913933705	0.6933845016571278	1.5258797290154769	-0.06821881019919276	0.45274154524180493	1.5185953722768153	-0.11642397320705285	0.5412779967041229	1.5428151300148596	-0.021327142161138065	0.744815680233914	1.5772308215728956	0.0747670329159812	0.4717858915769817	0.1741534578334239	0.09122759485155657	0.3978118077509184	-0.0781432362747484	0.08248589088650038	0.3560581876632196	0.06196984351275351	0.2313842961414522	0.4270799421558361	0.25311332265789155	0.3249915350196282	0.41905145235374647	0.48890244916361175	0.31757392726284667	0.2224332621183736	0.6294221505411401	0.26808665904066986	0.05814153111664204	0.6739816784379175	0.2912734217711451	0.05796738719128624	0.6904362574886727	0.3323547523625462	0.14577068023501957	0.7363445406472489	-0.09479662064261297	0.4398341662227519	0.26130090712184684	-0.1665588663738668	0.4958500255881199	0.5093104092044931	-0.18544521813389062	0.503258268458632	0.746986946414666	-0.13919303176068965	0.47228609866920607	0.8436682300729089	-0.17956107938685653	0.4717484719945753	0.857899666719951	-0.2231836754417585	0.4955154151033424	0.84987038080865
